<svg id="Group_2053" data-name="Group 2053" xmlns="http://www.w3.org/2000/svg" xmlns:xlink="http://www.w3.org/1999/xlink" width="235.478" height="68.785" viewBox="0 0 235.478 68.785">
  <title>American Montessori Society</title>
  <defs>
    <clipPath id="clip-path">
      <rect id="Rectangle_8555" data-name="Rectangle 8555" width="235.478" height="68.785" fill="none"/>
    </clipPath>
  </defs>
  <g id="Group_2052" data-name="Group 2052" clip-path="url(#clip-path)">
    <path id="Path_1" data-name="Path 1" d="M9.727,41.928A34.328,34.328,0,0,1,67.876,25.911,34.349,34.349,0,0,0,.941,27.4c1.106,4.576,4.331,10.025,8.786,14.531" transform="translate(-0.489 0.001)" fill="#003c87"/>
    <path id="Path_2" data-name="Path 2" d="M81.237,36.9a34.416,34.416,0,0,0-7.817.9A25.134,25.134,0,0,1,90.063,61.46c0,21.55-18.752,26.488-18.752,26.488a34.43,34.43,0,0,0,33.355-41.8A34.2,34.2,0,0,0,81.237,36.9" transform="translate(-37.031 -19.163)" fill="#147217"/>
    <path id="Path_3" data-name="Path 3" d="M.262,59.168C-1.586,77.188,6.813,86.559,11,90.587c8.895,8.548,21.2,8.779,21.2,8.779a29.729,29.729,0,0,0,8.259-4.081c6.757-4.986,7.681-10.357,7.681-10.357S31.277,88.8,18.109,82.27C7.717,77.12.166,66.619.262,59.168" transform="translate(0 -30.725)" fill="#df3a00"/>
    <path id="Path_4" data-name="Path 4" d="M210.961,56.9h-5.769a5.255,5.255,0,0,1-4.94-3.052l-3.694-8.08H170.694L167,53.851a5.237,5.237,0,0,1-4.9,3.052h-5.806L179.855,5.517H187.4Zm-17.8-18.6-7.917-17.308a11.619,11.619,0,0,1-1.433-5.314h-.377a11.932,11.932,0,0,1-1.395,5.314L174.125,38.3Z" transform="translate(-81.16 -2.865)" fill="#003c87"/>
    <path id="Path_5" data-name="Path 5" d="M337.079,5.518V56.9h-8.52V20.312a11.677,11.677,0,0,1,.527-2.8h-.075L312.158,48.177a4.334,4.334,0,0,1-7.653,0L287.651,17.511h-.075a10.093,10.093,0,0,1,.527,2.8V56.9h-8.521V5.518h6.3c2.865,0,4.11.789,5.467,3.16L307.6,37.369a7.438,7.438,0,0,1,.678,2.693h.113a7.418,7.418,0,0,1,.678-2.693L325.279,8.678c1.357-2.371,2.639-3.16,5.5-3.16Z" transform="translate(-145.184 -2.865)" fill="#003c87"/>
    <path id="Path_6" data-name="Path 6" d="M414.72,49.094l1.848-3.016a4.43,4.43,0,0,1,6.031-.862c2.753,1.867,6.825,3.59,9.576,3.7,5.882.072,10.067-2.549,10.067-7.685,0-3.448-3.054-5.925-9.8-8.438C422,29.2,417.246,24.533,417.246,18.105c0-8.223,6.71-13.933,16.362-13.933,4.864,0,10.821,1.868,14.328,5.494l-1.509,2.514a4.454,4.454,0,0,1-5.843,1.975,14.1,14.1,0,0,0-6.976-2.046c-4.561,0-7.842,2.262-7.842,5.96,0,2.909,2.828,4.956,9.011,7.038,10.821,3.268,15.986,8.582,15.986,16.088,0,9.264-7.615,15.656-18.587,15.656-6.975,0-13.271-3.483-17.456-7.756" transform="translate(-215.358 -2.166)" fill="#003c87"/>
    <path id="Path_7" data-name="Path 7" d="M165.206,129.848h-.739a.749.749,0,0,1-.71-.45l-.607-1.4h-4.107l-.612,1.4a.735.735,0,0,1-.7.45h-.739l3.6-8.254H161.6Zm-2.553-2.98-1.323-3.038a1.739,1.739,0,0,1-.208-.739h-.058a1.689,1.689,0,0,1-.2.739l-1.329,3.038Z" transform="translate(-81.521 -63.142)" fill="#df3a00"/>
    <path id="Path_8" data-name="Path 8" d="M184.2,128.546V132.3h-1.115v-3.761c0-.872-.427-1.126-.994-1.126a1.864,1.864,0,0,0-1.484.733,2.975,2.975,0,0,1,.024.4V132.3h-1.115v-3.761c0-.872-.422-1.126-.994-1.126a1.85,1.85,0,0,0-1.484.746V132.3h-1.115v-5.88h.768c.3,0,.347.214.347.445v.126a2.592,2.592,0,0,1,1.629-.675,1.812,1.812,0,0,1,1.669.935,2.749,2.749,0,0,1,1.9-.935,1.961,1.961,0,0,1,1.964,2.23" transform="translate(-91.352 -65.594)" fill="#df3a00"/>
    <path id="Path_9" data-name="Path 9" d="M201.91,129.2a.574.574,0,0,1-.572.618h-4.211a1.925,1.925,0,0,0,1.952,1.485,1.754,1.754,0,0,0,.965-.289.633.633,0,0,1,.826.139l.289.416a2.988,2.988,0,0,1-2.08.843,3.042,3.042,0,0,1-.058-6.083,2.749,2.749,0,0,1,2.888,2.871m-1.1-.416a1.719,1.719,0,0,0-1.785-1.346,1.877,1.877,0,0,0-1.906,1.555h.012a.61.61,0,0,1,.52-.208Z" transform="translate(-101.789 -65.599)" fill="#df3a00"/>
    <path id="Path_10" data-name="Path 10" d="M214.511,126.523l-.115.52a.56.56,0,0,1-.7.422,1.989,1.989,0,0,0-.324-.029,1.741,1.741,0,0,0-1.467,1V132.3h-1.109v-5.88h.612c.387,0,.5.271.5.543v.306a2,2,0,0,1,1.646-.953,2.3,2.3,0,0,1,.965.208" transform="translate(-109.461 -65.594)" fill="#df3a00"/>
    <path id="Path_11" data-name="Path 11" d="M220.748,121.413a.787.787,0,0,1,.774.785.78.78,0,1,1-1.559,0,.782.782,0,0,1,.785-.785m.554,8.341h-1.115v-5.88H221.3Z" transform="translate(-114.224 -63.048)" fill="#df3a00"/>
    <path id="Path_12" data-name="Path 12" d="M225.625,129.371a2.941,2.941,0,0,1,3.061-3.044,3.038,3.038,0,0,1,2.1.838l-.248.381a.619.619,0,0,1-.849.179,2.229,2.229,0,0,0-1-.283,1.926,1.926,0,1,0,0,3.852,2.189,2.189,0,0,0,1.005-.294.623.623,0,0,1,.849.178l.248.376a3.016,3.016,0,0,1-2.1.855,2.94,2.94,0,0,1-3.061-3.038" transform="translate(-117.164 -65.6)" fill="#df3a00"/>
    <path id="Path_13" data-name="Path 13" d="M243.446,128.782v3.529h-.537c-.434,0-.578-.265-.578-.658v-.1a2.837,2.837,0,0,1-1.969.867,1.894,1.894,0,0,1-1.958-1.769c0-1.132.687-1.871,2.328-1.871a6.313,6.313,0,0,1,1.6.249c-.006-1.121-.387-1.589-1.3-1.589a2.383,2.383,0,0,0-1.178.261.679.679,0,0,1-.878-.248l-.185-.336a3.674,3.674,0,0,1,2.3-.785,2.138,2.138,0,0,1,2.356,2.455m-1.115,1.842v-.739a4.97,4.97,0,0,0-1.438-.2c-.919,0-1.427.185-1.427.878,0,.5.422.791,1.074.791a3.406,3.406,0,0,0,1.791-.734" transform="translate(-123.799 -65.6)" fill="#df3a00"/>
    <path id="Path_14" data-name="Path 14" d="M257.834,128.805V132.3H256.72v-3.356c0-1.08-.422-1.531-1.2-1.531a2.554,2.554,0,0,0-1.618.746V132.3h-1.114v-5.88h.768c.3,0,.347.214.347.445v.167a2.725,2.725,0,0,1,1.843-.716c1.38,0,2.085.913,2.085,2.49" transform="translate(-131.271 -65.594)" fill="#df3a00"/>
    <path id="Path_15" data-name="Path 15" d="M283.688,121.594v8.254h-1.145v-6.215a1.255,1.255,0,0,1,.059-.318h-.013l-2.714,5.124a.58.58,0,0,1-1.046,0l-2.715-5.124H276.1a1.083,1.083,0,0,1,.058.318v6.215h-1.144v-8.254h.8a.775.775,0,0,1,.809.473l2.634,4.841a1.152,1.152,0,0,1,.082.357h.017a1.156,1.156,0,0,1,.081-.357l2.634-4.841a.779.779,0,0,1,.814-.473Z" transform="translate(-142.813 -63.142)" fill="#df3a00"/>
    <path id="Path_16" data-name="Path 16" d="M299.442,126.326a3.042,3.042,0,1,1-3.062,3.044,2.94,2.94,0,0,1,3.062-3.044m0,4.968a1.926,1.926,0,1,0-1.947-1.923,1.86,1.86,0,0,0,1.947,1.923" transform="translate(-153.906 -65.599)" fill="#df3a00"/>
    <path id="Path_17" data-name="Path 17" d="M317.048,128.805V132.3h-1.114v-3.356c0-1.08-.422-1.531-1.2-1.531a2.554,2.554,0,0,0-1.618.746V132.3h-1.114v-5.88h.768c.3,0,.347.214.347.445v.167a2.727,2.727,0,0,1,1.843-.716c1.381,0,2.085.913,2.085,2.49" transform="translate(-162.02 -65.594)" fill="#df3a00"/>
    <path id="Path_18" data-name="Path 18" d="M329.432,129.658a3.825,3.825,0,0,1-1.865.612,1.708,1.708,0,0,1-1.785-1.871v-3.067h-1.057v-.688a.356.356,0,0,1,.37-.358h.687l.006-1.611a.42.42,0,0,1,.427-.468h.7v2.08h1.693v1.046h-1.693v2.783c0,.682.364,1.046.913,1.046a1.342,1.342,0,0,0,.658-.208c.313-.156.63-.092.729.15Z" transform="translate(-168.625 -63.46)" fill="#df3a00"/>
    <path id="Path_19" data-name="Path 19" d="M341.664,129.2a.574.574,0,0,1-.573.618h-4.21a1.925,1.925,0,0,0,1.952,1.485,1.751,1.751,0,0,0,.964-.289.634.634,0,0,1,.826.139l.289.416a2.987,2.987,0,0,1-2.08.843,3.042,3.042,0,0,1-.058-6.083,2.749,2.749,0,0,1,2.888,2.871m-1.1-.416a1.719,1.719,0,0,0-1.784-1.346,1.877,1.877,0,0,0-1.906,1.555h.012a.609.609,0,0,1,.52-.208Z" transform="translate(-174.362 -65.599)" fill="#df3a00"/>
    <path id="Path_20" data-name="Path 20" d="M349.234,131.525l.237-.38a.67.67,0,0,1,.9-.162,2.024,2.024,0,0,0,1.022.329c.536,0,.855-.254.855-.728,0-.33-.284-.577-.97-.848-1.34-.521-1.618-.994-1.618-1.745a1.618,1.618,0,0,1,1.8-1.663,2.4,2.4,0,0,1,1.652.641l-.208.393a.65.65,0,0,1-.878.231,1.14,1.14,0,0,0-.56-.167c-.452,0-.688.2-.688.56,0,.3.225.467.808.688,1.208.449,1.78.964,1.78,1.882a1.876,1.876,0,0,1-2.1,1.855,2.872,2.872,0,0,1-2.028-.884" transform="translate(-181.352 -65.6)" fill="#df3a00"/>
    <path id="Path_21" data-name="Path 21" d="M359.334,131.525l.236-.38a.669.669,0,0,1,.9-.162,2.026,2.026,0,0,0,1.022.329c.538,0,.855-.254.855-.728,0-.33-.283-.577-.971-.848-1.34-.521-1.617-.994-1.617-1.745a1.619,1.619,0,0,1,1.8-1.663,2.4,2.4,0,0,1,1.652.641l-.208.393a.649.649,0,0,1-.878.231,1.14,1.14,0,0,0-.561-.167c-.45,0-.687.2-.687.56,0,.3.225.467.809.688,1.208.449,1.779.964,1.779,1.882a1.877,1.877,0,0,1-2.1,1.855,2.87,2.87,0,0,1-2.027-.884" transform="translate(-186.597 -65.6)" fill="#df3a00"/>
    <path id="Path_22" data-name="Path 22" d="M372.792,126.326a3.042,3.042,0,1,1-3.061,3.044,2.94,2.94,0,0,1,3.061-3.044m0,4.968a1.926,1.926,0,1,0-1.947-1.923,1.861,1.861,0,0,0,1.947,1.923" transform="translate(-191.996 -65.599)" fill="#df3a00"/>
    <path id="Path_23" data-name="Path 23" d="M389.078,126.523l-.115.52a.56.56,0,0,1-.7.422,1.984,1.984,0,0,0-.323-.029,1.74,1.74,0,0,0-1.467,1V132.3h-1.109v-5.88h.612c.387,0,.5.271.5.543v.306a2,2,0,0,1,1.646-.953,2.3,2.3,0,0,1,.965.208" transform="translate(-200.111 -65.594)" fill="#df3a00"/>
    <path id="Path_24" data-name="Path 24" d="M395.315,121.413a.787.787,0,0,1,.773.785.779.779,0,1,1-1.559,0,.782.782,0,0,1,.785-.785m.554,8.341h-1.115v-5.88h1.115Z" transform="translate(-204.874 -63.048)" fill="#df3a00"/>
    <path id="Path_25" data-name="Path 25" d="M407.549,128.62l.254-.422a.584.584,0,0,1,.809-.109,3.335,3.335,0,0,0,1.53.611c.965.017,1.652-.45,1.652-1.334,0-.607-.5-1.028-1.606-1.473-1.571-.577-2.276-1.311-2.276-2.317a2.241,2.241,0,0,1,2.461-2.2,3.07,3.07,0,0,1,2.137.873l-.2.346a.6.6,0,0,1-.8.283,2.185,2.185,0,0,0-1.137-.363c-.768,0-1.317.4-1.317,1.057,0,.509.451.861,1.444,1.225,1.657.549,2.438,1.392,2.438,2.565a2.535,2.535,0,0,1-2.8,2.479,3.636,3.636,0,0,1-2.593-1.219" transform="translate(-211.635 -63.029)" fill="#df3a00"/>
    <path id="Path_26" data-name="Path 26" d="M424.012,126.326a3.042,3.042,0,1,1-3.062,3.044,2.94,2.94,0,0,1,3.062-3.044m0,4.968a1.926,1.926,0,1,0-1.947-1.923,1.861,1.861,0,0,0,1.947,1.923" transform="translate(-218.594 -65.599)" fill="#df3a00"/>
    <path id="Path_27" data-name="Path 27" d="M435.569,129.371a2.941,2.941,0,0,1,3.061-3.044,3.036,3.036,0,0,1,2.1.838l-.248.381a.618.618,0,0,1-.849.179,2.234,2.234,0,0,0-1-.283,1.926,1.926,0,1,0,0,3.852,2.189,2.189,0,0,0,1.005-.294.623.623,0,0,1,.849.178l.248.376a3.018,3.018,0,0,1-2.1.855,2.939,2.939,0,0,1-3.061-3.038" transform="translate(-226.185 -65.6)" fill="#df3a00"/>
    <path id="Path_28" data-name="Path 28" d="M449.314,121.413a.787.787,0,0,1,.773.785.779.779,0,1,1-1.559,0,.782.782,0,0,1,.785-.785m.555,8.341h-1.115v-5.88h1.115Z" transform="translate(-232.915 -63.048)" fill="#df3a00"/>
    <path id="Path_29" data-name="Path 29" d="M460.08,129.2a.574.574,0,0,1-.573.618H455.3a1.924,1.924,0,0,0,1.952,1.485,1.751,1.751,0,0,0,.964-.289.634.634,0,0,1,.826.139l.289.416a2.987,2.987,0,0,1-2.08.843,3.042,3.042,0,0,1-.058-6.083,2.749,2.749,0,0,1,2.888,2.871m-1.1-.416a1.719,1.719,0,0,0-1.784-1.346,1.877,1.877,0,0,0-1.906,1.555h.012a.609.609,0,0,1,.52-.208Z" transform="translate(-235.854 -65.599)" fill="#df3a00"/>
    <path id="Path_30" data-name="Path 30" d="M472.012,129.658a3.837,3.837,0,0,1-1.866.612,1.707,1.707,0,0,1-1.784-1.871v-3.067H467.3v-.688a.356.356,0,0,1,.37-.358h.688l.005-1.611a.42.42,0,0,1,.427-.468h.7v2.08h1.692v1.046h-1.692v2.783c0,.682.363,1.046.912,1.046a1.347,1.347,0,0,0,.659-.208c.312-.156.629-.092.727.15Z" transform="translate(-242.665 -63.46)" fill="#df3a00"/>
    <path id="Path_31" data-name="Path 31" d="M483.269,126.532l-2.558,5.88-.716,1.635a.736.736,0,0,1-.711.444h-.7l1.05-2.3-2.46-5.661h.7a.729.729,0,0,1,.711.45l1.507,3.732a.957.957,0,0,1-.034.623h.017a4.738,4.738,0,0,0,.22-.514l1.553-3.841a.735.735,0,0,1,.711-.45Z" transform="translate(-247.791 -65.706)" fill="#df3a00"/>
  </g>
</svg>
