<?xml version="1.0" encoding="UTF-8"?>
<svg xmlns="http://www.w3.org/2000/svg" width="259" height="124" viewBox="0 0 259 124" fill="none">
  <g clip-path="url(#clip0_372_16425)">
    <path d="M59.4729 7.46313V22.3893H47.0871L46.9259 22.6846C46.6035 23.3558 45.9587 23.7584 45.2064 23.7584C44.4541 23.7584 43.8093 23.3558 43.4869 22.6846L43.3257 22.3893H30.9399V7.46313H29.8652V23.4631H42.6809C43.2451 24.3222 44.1586 24.8323 45.2064 24.8323C46.2542 24.8323 47.1677 24.3222 47.7319 23.4631H60.5745V7.46313H59.4998H59.4729Z" fill="#EF3E42"></path>
    <path d="M43.4331 21.1275C43.8093 21.1275 44.1317 21.2349 44.3197 21.4496C44.5347 21.6644 44.6421 21.9866 44.6421 22.3624H45.7168C45.7168 21.9866 45.8243 21.6644 46.0392 21.4496C46.2542 21.2349 46.5497 21.1275 46.9259 21.1275H58.0758V4.61743H46.899C46.1736 4.61743 45.5556 4.91273 45.1526 5.39596C45.1258 5.36911 45.0989 5.31542 45.0452 5.26173C44.6153 4.8322 44.0242 4.61743 43.3525 4.61743H32.2295V21.1275H43.3794H43.4331ZM46.0661 6.0134C46.281 5.79864 46.5766 5.69126 46.9527 5.69126H57.0279V20.0537H46.9527C46.496 20.0537 46.093 20.1611 45.7437 20.3758V6.92616C45.7437 6.55032 45.8512 6.25502 46.0661 6.04025V6.0134ZM44.3197 6.0134C44.5347 6.22817 44.6421 6.52347 44.6421 6.89931V20.349C44.2929 20.1611 43.8899 20.0268 43.4063 20.0268H33.331V5.69126H43.3794C43.7555 5.69126 44.0779 5.79864 44.2929 6.04025L44.3197 6.0134Z" fill="#EF3E42"></path>
    <path d="M90.0207 0H0.337891V1.07383H90.0207V0Z" fill="#EF3E42"></path>
    <path d="M10.2519 24.349C7.45768 24.349 7.1084 21.9061 6.81286 19.9732C6.46359 17.6108 6.11432 16.5101 4.44855 16.5101H3.75V15.4094H4.44855C7.24274 15.4094 7.59201 17.8524 7.88755 19.7853C8.23683 22.1208 8.5861 23.2484 10.2519 23.2484C11.9176 23.2484 12.2669 22.1477 12.6162 19.7853C12.9117 17.8255 13.261 15.4094 16.0552 15.4094H16.7537V16.5101H16.0552C14.3894 16.5101 14.0401 17.6108 13.6909 19.9732C13.3953 21.9329 13.0461 24.349 10.2519 24.349Z" fill="#EF3E42"></path>
    <path d="M10.2789 4.4563L9.84906 4.88583C9.28485 5.50328 7.13547 8.32207 6.67873 12.0268C5.73838 11.1677 4.74429 11.114 3.99201 11.114C2.70238 11.114 1.35902 11.7583 0.714207 12.7248C-0.0918095 13.9328 -0.226146 15.4362 0.364933 16.7784C0.956012 18.0939 2.1919 19.0335 3.77707 19.4093V18.2818C2.64865 17.9597 1.7889 17.2617 1.35902 16.3221C0.929145 15.3556 1.00975 14.2281 1.62769 13.3154C2.00383 12.7516 2.94419 12.161 3.99201 12.1878C5.03983 12.1878 6.35632 12.6442 7.51161 14.4966C7.51161 10.8187 9.44605 7.06033 10.2789 6.12073C11.1118 7.06033 13.0463 10.8187 13.0463 14.4966C14.2016 12.6174 15.518 12.1878 16.5659 12.1878C17.6137 12.1878 18.554 12.7516 18.9302 13.3154C19.5481 14.2281 19.6287 15.3288 19.1989 16.3221C18.769 17.2617 17.9092 17.9597 16.7808 18.2818V19.4093C18.366 19.0335 19.575 18.1207 20.1661 16.7784C20.7572 15.463 20.6228 13.9328 19.8168 12.7248C19.172 11.7583 17.8286 11.0872 16.539 11.114C15.7867 11.114 14.7926 11.1946 13.8523 12.0268C13.3955 8.32207 11.273 5.50328 10.6819 4.88583L10.2521 4.4563H10.2789Z" fill="#EF3E42"></path>
    <path d="M80.2519 23.8927C77.4577 23.8927 77.1084 21.4498 76.8129 19.5169C76.4636 17.1545 76.1143 16.0538 74.4485 16.0538H73.75V14.9531H74.4485C77.2427 14.9531 77.592 17.3961 77.8876 19.329C78.2368 21.6645 78.5861 22.7921 80.2519 22.7921C81.9176 22.7921 82.2669 21.6914 82.6162 19.329C82.9117 17.3692 83.261 14.9531 86.0552 14.9531H86.7537V16.0538H86.0552C84.3894 16.0538 84.0401 17.1545 83.6909 19.5169C83.3953 21.4766 83.0461 23.8927 80.2519 23.8927Z" fill="#EF3E42"></path>
    <path d="M80.2789 4L79.8491 4.42953C79.2849 5.04698 77.1355 7.86577 76.6787 11.5705C75.7384 10.7114 74.7443 10.6577 73.992 10.6577C72.7024 10.6577 71.359 11.302 70.7142 12.2685C69.9082 13.4765 69.7739 14.9799 70.3649 16.3221C70.956 17.6376 72.1919 18.5772 73.7771 18.953V17.8255C72.6486 17.5034 71.7889 16.8054 71.359 15.8658C70.9291 14.8993 71.0097 13.7718 71.6277 12.8591C72.0038 12.2953 72.9442 11.7047 73.992 11.7315C75.0398 11.7315 76.3295 12.1879 77.5116 14.0403C77.5116 10.3624 79.4461 6.60403 80.2789 5.66443C81.1118 6.60403 83.0463 10.3624 83.0463 14.0403C84.2016 12.1611 85.518 11.7315 86.5659 11.7315C87.6137 11.7315 88.554 12.2953 88.9302 12.8591C89.5481 13.7718 89.6287 14.8725 89.1989 15.8658C88.769 16.8054 87.9092 17.5034 86.7808 17.8255V18.953C88.366 18.5772 89.575 17.6644 90.1929 16.3221C90.784 15.0067 90.6497 13.4765 89.8437 12.2685C89.1989 11.302 87.8555 10.6309 86.5659 10.6577C85.8136 10.6577 84.8195 10.7383 83.8791 11.5705C83.4224 7.86577 81.2999 5.04698 80.7088 4.42953L80.2789 4Z" fill="#EF3E42"></path>
    <path d="M83.4118 87.1677L83.7342 86.4429C87.9255 77.0738 90.0211 66.7114 90.0211 55.5973V27.8389H0.365234V55.5973C0.365234 66.765 2.51461 77.1812 6.73276 86.5771L7.05517 87.302L45.3141 49.0738L83.4118 87.1409V87.1677ZM88.9465 55.5973C88.9465 66.255 86.9583 76.2416 83.0625 85.2617L72.7993 75.0067C74.8412 72.7785 75.8084 69.6912 76.5069 66.2281C77.501 61.2617 80.2146 60.3489 84.379 60.7516C83.8954 58.255 81.343 58.4429 79.6504 58.8187L81.3968 57.7449C84.4328 55.7583 85.2388 52.9395 84.7014 51.5436L78.7369 56.2147L83.3581 50.0671C84.2447 48.859 85.9911 46.1476 84.8358 42.5234L77.5548 52.6711C76.2114 54.4966 75.1904 56.7785 75.1904 59.8657C75.1904 66.604 73.9008 71.1409 71.5096 73.6912L61.5419 63.7315C64.148 64.3489 65.8944 63.7315 67.0765 62.953L53.5623 54.3624C56.3297 55.5167 58.9089 56.5637 60.7627 57.3154C67.5333 59.9731 70.5693 58.5234 72.1007 56.9127L56.867 51.3825C60.4403 51.9731 63.8793 52.5637 66.2168 52.8859C73.4172 53.906 76.0233 51.812 77.1517 49.9328L57.8611 47.6241C63.0465 47.3825 68.7154 47.0872 72.1544 46.8187C79.7847 46.255 81.9878 43.4899 82.7133 41.2885L55.8729 43.9731C62.2942 42.4429 70.9454 40.3489 75.6203 39.0603C83.6536 36.8858 85.4537 33.4765 85.7761 30.953L51.9772 40.8053C46.2813 42.255 45.2604 43.9731 45.1529 47.5436L43.2722 49.4228V36.161L40.8541 38.604C40.3437 38.3892 39.8332 38.255 39.4302 38.1476L33.3044 36.6442L33.6269 38.5503L36.6628 39.2483C36.3673 40.3758 35.2926 40.7785 34.003 40.6442L34.7284 44.6979L29.0326 50.4161C25.8891 53.557 25.2443 58.9798 28.2265 63.4899H22.2889L20.65 65.1275H12.1062V59.9463H9.50009L10.7897 61.2348V64.1879L7.37758 60.7785L5.52374 62.6308H7.35071L9.84936 65.1275H4.9864V67.7315L6.27602 66.4429H11.1927L13.8526 69.1006V70.8993L15.6795 69.0738L13.0466 66.4697H19.3335L17.2916 68.51H24.2502L7.40445 85.3422C3.45496 76.2684 1.46679 66.255 1.46679 55.5167V28.9127H88.9465V55.5973Z" fill="#EF3E42"></path>
    <path d="M33.1432 44.5637L31.6923 36.3489L27.9578 35.4362C26.4801 34.9798 26.2383 36.161 26.2383 36.6979V40.3489C27.1249 38.8724 27.7428 37.4765 28.8444 38.7114C29.946 39.9731 31.6386 41.8523 31.6386 41.8523H26.2383L31.8267 42.8724L31.8804 43.2483L26.8831 43.9731C27.4742 44.3489 28.4683 44.5906 29.3549 44.5906H33.1432V44.5637Z" fill="#EF3E42"></path>
    <path d="M25.7544 52.6443H20.6497L18.6884 54.604L12.4283 48.349L16.0822 44.698L14.2553 42.8725V44.6711L12.1596 46.7651V41.9597H9.5535L10.8431 43.2483V46.7651L7.40412 43.3288L5.57715 45.1543H7.37725L10.8431 48.6174V52.3758L9.5535 53.6644H12.1596V49.9597L17.748 55.5436L15.6255 57.6644H24.7335C24.6797 55.9194 25.0559 54.1208 25.7813 52.6443H25.7544Z" fill="#EF3E42"></path>
    <path d="M45.3143 60.7786L11.166 94.8994L11.4078 95.2752C17.3992 104.752 24.922 111.49 30.8328 115.785C31.0478 115.946 31.2627 116.107 31.4776 116.242C32.0418 116.644 32.6329 117.047 33.1703 117.423C39.8333 121.933 44.9918 123.919 45.0187 123.919L45.2068 124L45.3949 123.919C45.3949 123.919 50.6071 121.906 57.297 117.369C57.7806 117.047 58.2643 116.698 58.7479 116.349C59.2315 116.027 59.6882 115.678 60.145 115.356C66.002 111.007 73.2562 104.376 79.0863 95.1141L79.3282 94.7383L45.3143 60.7517V60.7786ZM63.7989 111.034C64.6049 109.396 64.8736 107.705 64.4706 106.067C63.8258 103.463 61.5958 101.557 58.9359 101.342C55.3895 101.047 52.0311 103.678 49.9892 108.376L50.9832 108.805C52.8371 104.564 55.7656 102.175 58.8553 102.416C61.0584 102.604 62.9123 104.188 63.4496 106.336C64.0944 108.94 62.7511 111.785 59.8226 114.255C52.5147 119.732 46.3889 122.362 45.2337 122.819C44.1052 122.362 38.087 119.758 30.8597 114.389C27.8237 111.893 26.3997 108.993 27.0714 106.336C27.6088 104.188 29.4626 102.604 31.6926 102.416C34.7554 102.175 37.6571 104.51 39.5109 108.698V108.752L39.5647 108.859L39.6453 108.94L40.5319 108.376C40.5319 108.376 40.5319 108.322 40.505 108.295C37.4422 100.43 39.3497 95.9463 42.1708 94.3625C44.6963 92.9396 47.9741 93.6376 49.9892 95.9195C50.2578 95.6779 50.5534 95.4631 50.8758 95.2752C48.5383 92.537 44.6694 91.7047 41.6603 93.396C40.3169 94.1477 36.6093 96.9665 38.2213 104.51C36.3406 102.282 34.03 101.128 31.5851 101.342C28.8984 101.557 26.6684 103.463 26.0236 106.094C25.6206 107.732 25.8624 109.423 26.6953 111.087C21.886 106.98 16.8619 101.691 12.59 95.0336L39.0542 68.5638H41.8215C42.8693 68.5638 45.2337 68.6712 44.9112 71.5705C44.0246 79.5437 47.195 83.3557 55.0671 86.443C57.4851 87.3826 58.8553 89.0739 59.2852 95.7316H53.4013C51.3594 95.7316 48.9682 97.396 48.9682 100.188H50.9026V98.5504L52.4609 96.9933V100.188H54.3416V98.5504L55.8999 96.9933V100.188H63.6914V83.0873L59.124 78.5235H61.5958L77.9848 94.8994C73.7129 101.584 68.6887 106.899 63.8526 111.007L63.7989 111.034Z" fill="#EF3E42"></path>
    <path d="M36.2592 74.7382C33.1963 75.812 33.1157 77.6912 33.8949 80.0805L36.8234 88.1073H30.8052C28.7633 88.1073 26.3721 89.7449 26.3721 92.5637H28.3065V90.9261L29.8648 89.3691V92.5637H31.7186V90.9261L33.2769 89.3691V92.5637H41.0416V82.1744H45.5553C43.5402 79.7046 42.7342 76.6442 43.1372 72.4563L36.2323 74.7113L36.2592 74.7382Z" fill="#EF3E42"></path>
    <path d="M130.709 33.9866C128.049 32.4296 125.766 31.7316 123.267 31.7316C118.323 31.7316 114.669 35.2484 114.669 39.9732C114.669 44.6981 118.216 48.1611 123.401 48.1611C125.846 48.1611 128.506 47.3021 130.924 45.7182V49.1007C128.802 50.2014 126.491 51.0068 123.106 51.0068C114.992 51.0068 111.445 44.7786 111.445 40.2417C111.445 33.6645 116.416 28.8591 123.294 28.8591C125.497 28.8591 127.754 29.396 130.709 30.6309V33.9598V33.9866Z" fill="#EF3E42"></path>
    <path d="M130.628 80.9665H127.512V71.5705H115.421V80.9665H112.305V59.4094H115.421V68.8054H127.512V59.4094H130.628V80.9665Z" fill="#EF3E42"></path>
    <path d="M139.495 80.9665H136.378V59.4094H139.495V80.9665Z" fill="#EF3E42"></path>
    <path d="M148.495 78.1745H158.248V80.9665H145.405V59.4094H148.495V78.2014V78.1745Z" fill="#EF3E42"></path>
    <path d="M163.057 78.1745H172.81V80.9665H159.968V59.4094H163.057V78.2014V78.1745Z" fill="#EF3E42"></path>
    <path d="M130.709 94.4161C128.049 92.859 125.766 92.1879 123.267 92.1879C118.323 92.1879 114.669 95.7047 114.669 100.43C114.669 105.154 118.216 108.617 123.401 108.617C125.846 108.617 128.506 107.758 130.924 106.174V109.557C128.802 110.658 126.491 111.463 123.106 111.463C114.992 111.463 111.445 105.235 111.445 100.698C111.445 94.1208 116.416 89.3154 123.294 89.3154C125.497 89.3154 127.754 89.8523 130.709 91.0872V94.4161Z" fill="#EF3E42"></path>
    <path d="M144.734 89.3423C151.853 89.3423 156.34 94.3893 156.34 100.403C156.34 106.416 151.961 111.463 144.653 111.463C137.345 111.463 133.127 106.255 133.127 100.403C133.127 94.5503 137.721 89.3423 144.707 89.3423H144.734ZM144.734 108.617C149.57 108.617 153.143 105.101 153.143 100.403C153.143 95.7047 149.57 92.1879 144.734 92.1879C139.897 92.1879 136.351 95.651 136.351 100.403C136.351 105.154 139.924 108.617 144.734 108.617Z" fill="#EF3E42"></path>
    <path d="M163.057 108.403H172.81V111.195H159.968V89.6377H163.057V108.403Z" fill="#EF3E42"></path>
    <path d="M177.619 108.403H187.372V111.195H174.529V89.6377H177.619V108.403Z" fill="#EF3E42"></path>
    <path d="M201.155 92.4028H192.02V98.9263H200.859V101.718H192.02V108.43H201.45V111.222H188.903V89.6646H201.155V92.4296V92.4028Z" fill="#EF3E42"></path>
    <path d="M224.314 100.295H221.225V101.691V107.758C219.747 108.242 218.215 108.617 216.55 108.617C211.418 108.617 207.818 105.235 207.818 100.43C207.818 95.6242 211.472 92.1879 216.147 92.1879C218.726 92.1879 221.359 92.9128 223.911 94.3087V91.1678C220.526 89.745 218.753 89.3423 216.227 89.3423C209.645 89.3423 204.647 94.1745 204.647 100.537C204.647 106.899 209.51 111.49 216.147 111.49C219.156 111.49 221.493 110.98 224.368 109.718V100.322L224.314 100.295Z" fill="#EF3E42"></path>
    <path d="M241.322 92.4028H232.187V98.9263H241.026V101.718H232.187V108.43H241.617V111.222H229.07V89.6646H241.322V92.4296V92.4028Z" fill="#EF3E42"></path>
    <path d="M152.982 47.9733V41.2619H161.848V38.4968H152.982V31.9733H162.143V29.1814H149.892V38.4968H137.936V29.1814H134.819V50.7653H137.936V41.2619H149.892V50.7653H162.439V47.9733H152.982Z" fill="#EF3E42"></path>
    <path d="M218.188 50.7653H215.529L201.101 34.1747V50.7653H198.199V29.1814H200.671L215.287 45.8794V29.1814H218.188V50.7384V50.7653Z" fill="#EF3E42"></path>
    <path d="M237.963 29.1814V41.7452C237.963 43.7586 237.694 45.3425 236.593 46.4431C235.599 47.4364 233.906 48.1881 231.515 48.1881C229.634 48.1881 228.103 47.5975 226.867 46.3626C225.873 45.3693 225.577 44.376 225.577 41.9331V29.1814H222.487V42.6042C222.487 48.4834 226.92 51.0606 231.461 51.0606C237.882 51.0606 241.053 47.5707 241.053 42.3089V32.0002H248.414V50.7921H251.531V32.0002H259V29.2082H237.963V29.1814Z" fill="#EF3E42"></path>
    <path d="M185.142 31.9732V50.7651H188.232V31.9732H195.701V29.1812H173.159C169.129 28.9664 165.851 30.7919 165.905 35.0067C165.959 40.9128 175.362 41.0738 175.362 45.5302C175.362 46.7383 174.261 48.2416 171.843 48.2416C169.72 48.2416 167.732 47.1409 166.147 45.1275V49.047C167.947 50.4161 169.854 51.0336 172.192 51.0336C175.685 51.0336 178.237 48.5638 178.237 45.1812C178.237 38.3087 169.022 38.953 169.022 34.8188C169.022 32.2953 171.09 31.9732 173.078 31.9732H185.115H185.142Z" fill="#EF3E42"></path>
  </g>
  <defs>
    <clipPath id="clip0_372_16425">
      <rect width="259" height="124" fill="white"></rect>
    </clipPath>
  </defs>
</svg>
